<mxfile host="app.diagrams.net" modified="2023-04-20T22:59:50.643Z" agent="Mozilla/5.0 (Windows NT 10.0; Win64; x64) AppleWebKit/537.36 (KHTML, like Gecko) Chrome/110.0.0.0 YaBrowser/23.3.1.895 Yowser/2.5 Safari/537.36" etag="wJzxM_8n24qbdLTMWjIG" version="21.2.0" type="github">
  <diagram name="Sayfa -1" id="YFJGX13crzyHSaCq0thN">
    <mxGraphModel dx="2377" dy="1369" grid="1" gridSize="10" guides="1" tooltips="1" connect="1" arrows="1" fold="1" page="1" pageScale="1" pageWidth="2339" pageHeight="3300" math="0" shadow="0">
      <root>
        <mxCell id="0" />
        <mxCell id="1" parent="0" />
        <mxCell id="qtOEuD3kWv1N_w0OJ42x-2" value="Open Web Site" style="ellipse;whiteSpace=wrap;html=1;aspect=fixed;" vertex="1" parent="1">
          <mxGeometry x="30" y="220" width="80" height="80" as="geometry" />
        </mxCell>
        <mxCell id="qtOEuD3kWv1N_w0OJ42x-3" value="" style="endArrow=classic;html=1;rounded=0;exitX=1;exitY=0.5;exitDx=0;exitDy=0;entryX=0;entryY=0.5;entryDx=0;entryDy=0;" edge="1" parent="1" source="qtOEuD3kWv1N_w0OJ42x-2" target="qtOEuD3kWv1N_w0OJ42x-4">
          <mxGeometry width="50" height="50" relative="1" as="geometry">
            <mxPoint x="140" y="270" as="sourcePoint" />
            <mxPoint x="150" y="260" as="targetPoint" />
          </mxGeometry>
        </mxCell>
        <mxCell id="qtOEuD3kWv1N_w0OJ42x-4" value="Do you have an account?" style="rhombus;whiteSpace=wrap;html=1;" vertex="1" parent="1">
          <mxGeometry x="160" y="205" width="110" height="110" as="geometry" />
        </mxCell>
        <mxCell id="qtOEuD3kWv1N_w0OJ42x-5" value="" style="endArrow=classic;html=1;rounded=0;exitX=1;exitY=0.5;exitDx=0;exitDy=0;entryX=0;entryY=0.5;entryDx=0;entryDy=0;" edge="1" parent="1" source="qtOEuD3kWv1N_w0OJ42x-4" target="qtOEuD3kWv1N_w0OJ42x-15">
          <mxGeometry width="50" height="50" relative="1" as="geometry">
            <mxPoint x="290" y="250" as="sourcePoint" />
            <mxPoint x="340" y="200" as="targetPoint" />
          </mxGeometry>
        </mxCell>
        <mxCell id="qtOEuD3kWv1N_w0OJ42x-6" value="" style="endArrow=classic;html=1;rounded=0;exitX=0.5;exitY=1;exitDx=0;exitDy=0;entryX=0.5;entryY=0;entryDx=0;entryDy=0;edgeStyle=elbowEdgeStyle;" edge="1" parent="1" source="qtOEuD3kWv1N_w0OJ42x-4" target="qtOEuD3kWv1N_w0OJ42x-8">
          <mxGeometry width="50" height="50" relative="1" as="geometry">
            <mxPoint x="260" y="370" as="sourcePoint" />
            <mxPoint x="215" y="350" as="targetPoint" />
          </mxGeometry>
        </mxCell>
        <mxCell id="qtOEuD3kWv1N_w0OJ42x-10" value="&lt;font style=&quot;font-size: 12px;&quot;&gt;No&lt;/font&gt;" style="edgeLabel;html=1;align=center;verticalAlign=middle;resizable=0;points=[];" vertex="1" connectable="0" parent="qtOEuD3kWv1N_w0OJ42x-6">
          <mxGeometry x="-0.3696" y="-1" relative="1" as="geometry">
            <mxPoint x="1" y="1" as="offset" />
          </mxGeometry>
        </mxCell>
        <mxCell id="qtOEuD3kWv1N_w0OJ42x-7" value="Leave Web Site" style="ellipse;whiteSpace=wrap;html=1;aspect=fixed;" vertex="1" parent="1">
          <mxGeometry x="175" y="560" width="80" height="80" as="geometry" />
        </mxCell>
        <mxCell id="qtOEuD3kWv1N_w0OJ42x-8" value="&lt;font style=&quot;font-size: 11px;&quot;&gt;Do you want to &lt;br&gt;become a member?&lt;/font&gt;" style="rhombus;whiteSpace=wrap;html=1;" vertex="1" parent="1">
          <mxGeometry x="155" y="390" width="120" height="120" as="geometry" />
        </mxCell>
        <mxCell id="qtOEuD3kWv1N_w0OJ42x-9" value="" style="endArrow=classic;html=1;rounded=0;exitX=0.5;exitY=1;exitDx=0;exitDy=0;entryX=0.5;entryY=0;entryDx=0;entryDy=0;" edge="1" parent="1" source="qtOEuD3kWv1N_w0OJ42x-8" target="qtOEuD3kWv1N_w0OJ42x-7">
          <mxGeometry width="50" height="50" relative="1" as="geometry">
            <mxPoint x="170" y="480" as="sourcePoint" />
            <mxPoint x="220" y="430" as="targetPoint" />
          </mxGeometry>
        </mxCell>
        <mxCell id="qtOEuD3kWv1N_w0OJ42x-11" value="No" style="edgeLabel;html=1;align=center;verticalAlign=middle;resizable=0;points=[];" vertex="1" connectable="0" parent="qtOEuD3kWv1N_w0OJ42x-9">
          <mxGeometry x="-0.5086" relative="1" as="geometry">
            <mxPoint as="offset" />
          </mxGeometry>
        </mxCell>
        <mxCell id="qtOEuD3kWv1N_w0OJ42x-12" value="" style="endArrow=classic;html=1;rounded=0;exitX=1;exitY=0.5;exitDx=0;exitDy=0;entryX=0;entryY=0.5;entryDx=0;entryDy=0;" edge="1" parent="1" source="qtOEuD3kWv1N_w0OJ42x-8" target="qtOEuD3kWv1N_w0OJ42x-13">
          <mxGeometry width="50" height="50" relative="1" as="geometry">
            <mxPoint x="320" y="430" as="sourcePoint" />
            <mxPoint x="370" y="380" as="targetPoint" />
          </mxGeometry>
        </mxCell>
        <mxCell id="qtOEuD3kWv1N_w0OJ42x-14" value="Yes" style="edgeLabel;html=1;align=center;verticalAlign=middle;resizable=0;points=[];" vertex="1" connectable="0" parent="qtOEuD3kWv1N_w0OJ42x-12">
          <mxGeometry x="-0.2812" relative="1" as="geometry">
            <mxPoint as="offset" />
          </mxGeometry>
        </mxCell>
        <mxCell id="qtOEuD3kWv1N_w0OJ42x-13" value="Create An Account" style="rounded=1;whiteSpace=wrap;html=1;" vertex="1" parent="1">
          <mxGeometry x="354" y="420" width="120" height="60" as="geometry" />
        </mxCell>
        <mxCell id="qtOEuD3kWv1N_w0OJ42x-15" value="Log in Web Site" style="rounded=1;whiteSpace=wrap;html=1;" vertex="1" parent="1">
          <mxGeometry x="354" y="230" width="120" height="60" as="geometry" />
        </mxCell>
        <mxCell id="qtOEuD3kWv1N_w0OJ42x-16" value="" style="endArrow=classic;html=1;rounded=0;exitX=0.5;exitY=0;exitDx=0;exitDy=0;entryX=0.5;entryY=1;entryDx=0;entryDy=0;" edge="1" parent="1" source="qtOEuD3kWv1N_w0OJ42x-13" target="qtOEuD3kWv1N_w0OJ42x-15">
          <mxGeometry width="50" height="50" relative="1" as="geometry">
            <mxPoint x="420" y="400" as="sourcePoint" />
            <mxPoint x="470" y="350" as="targetPoint" />
          </mxGeometry>
        </mxCell>
        <mxCell id="qtOEuD3kWv1N_w0OJ42x-17" value="" style="endArrow=classic;html=1;rounded=0;exitX=1;exitY=0.5;exitDx=0;exitDy=0;entryX=0;entryY=0.5;entryDx=0;entryDy=0;" edge="1" parent="1" source="qtOEuD3kWv1N_w0OJ42x-15" target="qtOEuD3kWv1N_w0OJ42x-18">
          <mxGeometry width="50" height="50" relative="1" as="geometry">
            <mxPoint x="520" y="350" as="sourcePoint" />
            <mxPoint x="570" y="300" as="targetPoint" />
          </mxGeometry>
        </mxCell>
        <mxCell id="qtOEuD3kWv1N_w0OJ42x-18" value="Are you a customer?" style="rhombus;whiteSpace=wrap;html=1;" vertex="1" parent="1">
          <mxGeometry x="540" y="220" width="80" height="80" as="geometry" />
        </mxCell>
        <mxCell id="qtOEuD3kWv1N_w0OJ42x-19" value="" style="endArrow=classic;html=1;rounded=0;exitX=1;exitY=0.5;exitDx=0;exitDy=0;entryX=0;entryY=0.5;entryDx=0;entryDy=0;" edge="1" parent="1" source="qtOEuD3kWv1N_w0OJ42x-18" target="qtOEuD3kWv1N_w0OJ42x-20">
          <mxGeometry width="50" height="50" relative="1" as="geometry">
            <mxPoint x="650" y="260" as="sourcePoint" />
            <mxPoint x="700" y="260" as="targetPoint" />
          </mxGeometry>
        </mxCell>
        <mxCell id="qtOEuD3kWv1N_w0OJ42x-21" value="Yes" style="edgeLabel;html=1;align=center;verticalAlign=middle;resizable=0;points=[];" vertex="1" connectable="0" parent="qtOEuD3kWv1N_w0OJ42x-19">
          <mxGeometry x="-0.2457" y="2" relative="1" as="geometry">
            <mxPoint as="offset" />
          </mxGeometry>
        </mxCell>
        <mxCell id="qtOEuD3kWv1N_w0OJ42x-20" value="&lt;font style=&quot;font-size: 10px;&quot;&gt;Has it been 90 &lt;br&gt;days since the last &lt;br&gt;password &lt;br&gt;update?&lt;/font&gt;" style="rhombus;whiteSpace=wrap;html=1;" vertex="1" parent="1">
          <mxGeometry x="670" y="205" width="110" height="110" as="geometry" />
        </mxCell>
        <mxCell id="qtOEuD3kWv1N_w0OJ42x-22" value="" style="endArrow=classic;html=1;rounded=0;exitX=1;exitY=0.5;exitDx=0;exitDy=0;entryX=0;entryY=0.5;entryDx=0;entryDy=0;" edge="1" parent="1" source="qtOEuD3kWv1N_w0OJ42x-20" target="qtOEuD3kWv1N_w0OJ42x-24">
          <mxGeometry width="50" height="50" relative="1" as="geometry">
            <mxPoint x="760" y="400" as="sourcePoint" />
            <mxPoint x="870" y="260" as="targetPoint" />
          </mxGeometry>
        </mxCell>
        <mxCell id="qtOEuD3kWv1N_w0OJ42x-23" value="Yes" style="edgeLabel;html=1;align=center;verticalAlign=middle;resizable=0;points=[];" vertex="1" connectable="0" parent="qtOEuD3kWv1N_w0OJ42x-22">
          <mxGeometry x="-0.3333" relative="1" as="geometry">
            <mxPoint as="offset" />
          </mxGeometry>
        </mxCell>
        <mxCell id="qtOEuD3kWv1N_w0OJ42x-24" value="Change Password" style="rounded=1;whiteSpace=wrap;html=1;" vertex="1" parent="1">
          <mxGeometry x="840" y="230" width="120" height="60" as="geometry" />
        </mxCell>
        <mxCell id="qtOEuD3kWv1N_w0OJ42x-25" value="" style="endArrow=classic;html=1;rounded=0;exitX=0.5;exitY=1;exitDx=0;exitDy=0;entryX=0;entryY=0.5;entryDx=0;entryDy=0;edgeStyle=orthogonalEdgeStyle;elbow=vertical;" edge="1" parent="1" source="qtOEuD3kWv1N_w0OJ42x-20" target="qtOEuD3kWv1N_w0OJ42x-26">
          <mxGeometry width="50" height="50" relative="1" as="geometry">
            <mxPoint x="720" y="420" as="sourcePoint" />
            <mxPoint x="725" y="380" as="targetPoint" />
          </mxGeometry>
        </mxCell>
        <mxCell id="qtOEuD3kWv1N_w0OJ42x-27" value="No" style="edgeLabel;html=1;align=center;verticalAlign=middle;resizable=0;points=[];" vertex="1" connectable="0" parent="qtOEuD3kWv1N_w0OJ42x-25">
          <mxGeometry x="-0.3231" relative="1" as="geometry">
            <mxPoint as="offset" />
          </mxGeometry>
        </mxCell>
        <mxCell id="qtOEuD3kWv1N_w0OJ42x-26" value="Logged into" style="rounded=1;whiteSpace=wrap;html=1;" vertex="1" parent="1">
          <mxGeometry x="840" y="330" width="120" height="60" as="geometry" />
        </mxCell>
        <mxCell id="qtOEuD3kWv1N_w0OJ42x-28" value="" style="endArrow=classic;html=1;rounded=0;exitX=0.5;exitY=1;exitDx=0;exitDy=0;entryX=0.5;entryY=0;entryDx=0;entryDy=0;" edge="1" parent="1" source="qtOEuD3kWv1N_w0OJ42x-24" target="qtOEuD3kWv1N_w0OJ42x-26">
          <mxGeometry width="50" height="50" relative="1" as="geometry">
            <mxPoint x="950" y="120" as="sourcePoint" />
            <mxPoint x="1000" y="70" as="targetPoint" />
          </mxGeometry>
        </mxCell>
        <mxCell id="qtOEuD3kWv1N_w0OJ42x-29" value="" style="endArrow=classic;html=1;rounded=0;exitX=1;exitY=0.5;exitDx=0;exitDy=0;entryX=0;entryY=0.5;entryDx=0;entryDy=0;" edge="1" parent="1" source="qtOEuD3kWv1N_w0OJ42x-26" target="qtOEuD3kWv1N_w0OJ42x-30">
          <mxGeometry width="50" height="50" relative="1" as="geometry">
            <mxPoint x="1010" y="390" as="sourcePoint" />
            <mxPoint x="1060" y="340" as="targetPoint" />
          </mxGeometry>
        </mxCell>
        <mxCell id="qtOEuD3kWv1N_w0OJ42x-30" value="" style="rhombus;whiteSpace=wrap;html=1;rounded=0;fillStyle=auto;" vertex="1" parent="1">
          <mxGeometry x="1020" y="315" width="90" height="90" as="geometry" />
        </mxCell>
        <mxCell id="qtOEuD3kWv1N_w0OJ42x-32" value="" style="ellipse;whiteSpace=wrap;html=1;aspect=fixed;" vertex="1" parent="1">
          <mxGeometry x="1050" y="345" width="30" height="30" as="geometry" />
        </mxCell>
        <mxCell id="qtOEuD3kWv1N_w0OJ42x-33" value="Search For Wanted Property" style="rounded=1;whiteSpace=wrap;html=1;" vertex="1" parent="1">
          <mxGeometry x="1350" y="220" width="120" height="60" as="geometry" />
        </mxCell>
        <mxCell id="qtOEuD3kWv1N_w0OJ42x-34" value="Is The Property&lt;br&gt;Available?" style="rhombus;whiteSpace=wrap;html=1;" vertex="1" parent="1">
          <mxGeometry x="1530" y="195" width="110" height="110" as="geometry" />
        </mxCell>
        <mxCell id="qtOEuD3kWv1N_w0OJ42x-35" value="Reserve A Property" style="rounded=1;whiteSpace=wrap;html=1;" vertex="1" parent="1">
          <mxGeometry x="1730" y="220" width="120" height="60" as="geometry" />
        </mxCell>
        <mxCell id="qtOEuD3kWv1N_w0OJ42x-38" value="" style="endArrow=classic;html=1;rounded=0;exitX=1;exitY=0.5;exitDx=0;exitDy=0;entryX=0;entryY=0.5;entryDx=0;entryDy=0;edgeStyle=elbowEdgeStyle;" edge="1" parent="1" source="qtOEuD3kWv1N_w0OJ42x-30" target="qtOEuD3kWv1N_w0OJ42x-33">
          <mxGeometry width="50" height="50" relative="1" as="geometry">
            <mxPoint x="1170" y="390" as="sourcePoint" />
            <mxPoint x="1220" y="340" as="targetPoint" />
            <Array as="points">
              <mxPoint x="1150" y="310" />
            </Array>
          </mxGeometry>
        </mxCell>
        <mxCell id="qtOEuD3kWv1N_w0OJ42x-43" value="Want to Borrow A Property" style="edgeLabel;html=1;align=center;verticalAlign=middle;resizable=0;points=[];" vertex="1" connectable="0" parent="qtOEuD3kWv1N_w0OJ42x-38">
          <mxGeometry x="0.4213" y="-1" relative="1" as="geometry">
            <mxPoint y="-11" as="offset" />
          </mxGeometry>
        </mxCell>
        <mxCell id="qtOEuD3kWv1N_w0OJ42x-39" value="" style="endArrow=classic;html=1;rounded=0;exitX=1;exitY=0.5;exitDx=0;exitDy=0;entryX=0;entryY=0.5;entryDx=0;entryDy=0;" edge="1" parent="1" source="qtOEuD3kWv1N_w0OJ42x-33" target="qtOEuD3kWv1N_w0OJ42x-34">
          <mxGeometry width="50" height="50" relative="1" as="geometry">
            <mxPoint x="1590" y="390" as="sourcePoint" />
            <mxPoint x="1640" y="340" as="targetPoint" />
          </mxGeometry>
        </mxCell>
        <mxCell id="qtOEuD3kWv1N_w0OJ42x-40" value="" style="endArrow=classic;html=1;rounded=0;exitX=1;exitY=0.5;exitDx=0;exitDy=0;entryX=0;entryY=0.5;entryDx=0;entryDy=0;" edge="1" parent="1" source="qtOEuD3kWv1N_w0OJ42x-34" target="qtOEuD3kWv1N_w0OJ42x-35">
          <mxGeometry width="50" height="50" relative="1" as="geometry">
            <mxPoint x="1660" y="435" as="sourcePoint" />
            <mxPoint x="1710" y="385" as="targetPoint" />
          </mxGeometry>
        </mxCell>
        <mxCell id="qtOEuD3kWv1N_w0OJ42x-44" value="Yes" style="edgeLabel;html=1;align=center;verticalAlign=middle;resizable=0;points=[];" vertex="1" connectable="0" parent="qtOEuD3kWv1N_w0OJ42x-40">
          <mxGeometry x="0.3222" y="3" relative="1" as="geometry">
            <mxPoint x="-19" as="offset" />
          </mxGeometry>
        </mxCell>
        <mxCell id="qtOEuD3kWv1N_w0OJ42x-41" value="" style="endArrow=classic;html=1;rounded=0;exitX=1;exitY=0.5;exitDx=0;exitDy=0;entryX=0;entryY=0.5;entryDx=0;entryDy=0;edgeStyle=orthogonalEdgeStyle;" edge="1" parent="1" source="qtOEuD3kWv1N_w0OJ42x-35" target="qtOEuD3kWv1N_w0OJ42x-61">
          <mxGeometry width="50" height="50" relative="1" as="geometry">
            <mxPoint x="1970" y="480" as="sourcePoint" />
            <mxPoint x="1910" y="250" as="targetPoint" />
            <Array as="points">
              <mxPoint x="2050" y="250" />
              <mxPoint x="2050" y="540" />
            </Array>
          </mxGeometry>
        </mxCell>
        <mxCell id="qtOEuD3kWv1N_w0OJ42x-46" value="" style="endArrow=classic;html=1;rounded=0;exitX=0.5;exitY=1;exitDx=0;exitDy=0;entryX=0.5;entryY=0;entryDx=0;entryDy=0;" edge="1" parent="1" source="qtOEuD3kWv1N_w0OJ42x-34" target="qtOEuD3kWv1N_w0OJ42x-47">
          <mxGeometry width="50" height="50" relative="1" as="geometry">
            <mxPoint x="1600" y="500" as="sourcePoint" />
            <mxPoint x="1585" y="360" as="targetPoint" />
          </mxGeometry>
        </mxCell>
        <mxCell id="qtOEuD3kWv1N_w0OJ42x-48" value="No" style="edgeLabel;html=1;align=center;verticalAlign=middle;resizable=0;points=[];" vertex="1" connectable="0" parent="qtOEuD3kWv1N_w0OJ42x-46">
          <mxGeometry x="-0.3879" relative="1" as="geometry">
            <mxPoint as="offset" />
          </mxGeometry>
        </mxCell>
        <mxCell id="qtOEuD3kWv1N_w0OJ42x-47" value="Show Expected Date Of Availability" style="rounded=1;whiteSpace=wrap;html=1;" vertex="1" parent="1">
          <mxGeometry x="1525" y="370" width="120" height="60" as="geometry" />
        </mxCell>
        <mxCell id="qtOEuD3kWv1N_w0OJ42x-49" value="&lt;font style=&quot;font-size: 11px;&quot;&gt;Do you want to &lt;br&gt;put the waiting list?&lt;/font&gt;" style="rhombus;whiteSpace=wrap;html=1;" vertex="1" parent="1">
          <mxGeometry x="1720" y="345" width="120" height="110" as="geometry" />
        </mxCell>
        <mxCell id="qtOEuD3kWv1N_w0OJ42x-50" value="Put the Reservation on the waiting List" style="rounded=1;whiteSpace=wrap;html=1;" vertex="1" parent="1">
          <mxGeometry x="1910" y="370" width="120" height="60" as="geometry" />
        </mxCell>
        <mxCell id="qtOEuD3kWv1N_w0OJ42x-51" value="" style="endArrow=classic;html=1;rounded=0;exitX=1;exitY=0.5;exitDx=0;exitDy=0;entryX=0;entryY=0.5;entryDx=0;entryDy=0;" edge="1" parent="1" source="qtOEuD3kWv1N_w0OJ42x-47" target="qtOEuD3kWv1N_w0OJ42x-49">
          <mxGeometry width="50" height="50" relative="1" as="geometry">
            <mxPoint x="1710" y="550" as="sourcePoint" />
            <mxPoint x="1760" y="500" as="targetPoint" />
          </mxGeometry>
        </mxCell>
        <mxCell id="qtOEuD3kWv1N_w0OJ42x-52" value="" style="endArrow=classic;html=1;rounded=0;exitX=1;exitY=0.5;exitDx=0;exitDy=0;entryX=0;entryY=0.5;entryDx=0;entryDy=0;" edge="1" parent="1" source="qtOEuD3kWv1N_w0OJ42x-49" target="qtOEuD3kWv1N_w0OJ42x-50">
          <mxGeometry width="50" height="50" relative="1" as="geometry">
            <mxPoint x="1860" y="510" as="sourcePoint" />
            <mxPoint x="1910" y="460" as="targetPoint" />
          </mxGeometry>
        </mxCell>
        <mxCell id="qtOEuD3kWv1N_w0OJ42x-56" value="Yes" style="edgeLabel;html=1;align=center;verticalAlign=middle;resizable=0;points=[];" vertex="1" connectable="0" parent="qtOEuD3kWv1N_w0OJ42x-52">
          <mxGeometry x="-0.3398" y="1" relative="1" as="geometry">
            <mxPoint as="offset" />
          </mxGeometry>
        </mxCell>
        <mxCell id="qtOEuD3kWv1N_w0OJ42x-54" value="" style="endArrow=classic;html=1;rounded=0;exitX=1;exitY=0.5;exitDx=0;exitDy=0;entryX=0;entryY=0.5;entryDx=0;entryDy=0;edgeStyle=orthogonalEdgeStyle;" edge="1" parent="1" source="qtOEuD3kWv1N_w0OJ42x-50" target="qtOEuD3kWv1N_w0OJ42x-61">
          <mxGeometry width="50" height="50" relative="1" as="geometry">
            <mxPoint x="2040" y="510" as="sourcePoint" />
            <mxPoint x="2090" y="460" as="targetPoint" />
          </mxGeometry>
        </mxCell>
        <mxCell id="qtOEuD3kWv1N_w0OJ42x-55" value="" style="endArrow=classic;html=1;rounded=0;exitX=0.5;exitY=1;exitDx=0;exitDy=0;entryX=0;entryY=0.5;entryDx=0;entryDy=0;edgeStyle=elbowEdgeStyle;" edge="1" parent="1" source="qtOEuD3kWv1N_w0OJ42x-49" target="qtOEuD3kWv1N_w0OJ42x-61">
          <mxGeometry width="50" height="50" relative="1" as="geometry">
            <mxPoint x="1870" y="580" as="sourcePoint" />
            <mxPoint x="1920" y="530" as="targetPoint" />
          </mxGeometry>
        </mxCell>
        <mxCell id="qtOEuD3kWv1N_w0OJ42x-57" value="No" style="edgeLabel;html=1;align=center;verticalAlign=middle;resizable=0;points=[];" vertex="1" connectable="0" parent="qtOEuD3kWv1N_w0OJ42x-55">
          <mxGeometry x="-0.3428" relative="1" as="geometry">
            <mxPoint as="offset" />
          </mxGeometry>
        </mxCell>
        <mxCell id="qtOEuD3kWv1N_w0OJ42x-58" value="Click To See Full Mode" style="rounded=1;whiteSpace=wrap;html=1;" vertex="1" parent="1">
          <mxGeometry x="1350" y="510" width="120" height="60" as="geometry" />
        </mxCell>
        <mxCell id="qtOEuD3kWv1N_w0OJ42x-59" value="" style="endArrow=classic;html=1;rounded=0;exitX=1;exitY=0.5;exitDx=0;exitDy=0;entryX=0;entryY=0.5;entryDx=0;entryDy=0;edgeStyle=elbowEdgeStyle;" edge="1" parent="1" source="qtOEuD3kWv1N_w0OJ42x-30" target="qtOEuD3kWv1N_w0OJ42x-58">
          <mxGeometry width="50" height="50" relative="1" as="geometry">
            <mxPoint x="1120" y="510" as="sourcePoint" />
            <mxPoint x="1170" y="460" as="targetPoint" />
            <Array as="points">
              <mxPoint x="1150" y="440" />
            </Array>
          </mxGeometry>
        </mxCell>
        <mxCell id="qtOEuD3kWv1N_w0OJ42x-64" value="Want to See Detail?" style="edgeLabel;html=1;align=center;verticalAlign=middle;resizable=0;points=[];" vertex="1" connectable="0" parent="qtOEuD3kWv1N_w0OJ42x-59">
          <mxGeometry x="0.3757" y="4" relative="1" as="geometry">
            <mxPoint x="12" y="-6" as="offset" />
          </mxGeometry>
        </mxCell>
        <mxCell id="qtOEuD3kWv1N_w0OJ42x-60" value="" style="endArrow=classic;html=1;rounded=0;exitX=1;exitY=0.5;exitDx=0;exitDy=0;entryX=0;entryY=0.5;entryDx=0;entryDy=0;" edge="1" parent="1" source="qtOEuD3kWv1N_w0OJ42x-58" target="qtOEuD3kWv1N_w0OJ42x-61">
          <mxGeometry width="50" height="50" relative="1" as="geometry">
            <mxPoint x="1210" y="700" as="sourcePoint" />
            <mxPoint x="2020" y="550" as="targetPoint" />
          </mxGeometry>
        </mxCell>
        <mxCell id="qtOEuD3kWv1N_w0OJ42x-61" value="" style="rhombus;whiteSpace=wrap;html=1;rounded=0;fillStyle=auto;" vertex="1" parent="1">
          <mxGeometry x="2090" y="495" width="90" height="90" as="geometry" />
        </mxCell>
        <mxCell id="qtOEuD3kWv1N_w0OJ42x-62" value="" style="ellipse;whiteSpace=wrap;html=1;aspect=fixed;" vertex="1" parent="1">
          <mxGeometry x="2120" y="525" width="30" height="30" as="geometry" />
        </mxCell>
        <mxCell id="qtOEuD3kWv1N_w0OJ42x-63" value="" style="endArrow=classic;html=1;rounded=0;exitX=1;exitY=0.5;exitDx=0;exitDy=0;entryX=0.5;entryY=0;entryDx=0;entryDy=0;edgeStyle=orthogonalEdgeStyle;" edge="1" parent="1" source="qtOEuD3kWv1N_w0OJ42x-61" target="qtOEuD3kWv1N_w0OJ42x-30">
          <mxGeometry width="50" height="50" relative="1" as="geometry">
            <mxPoint x="2210" y="670" as="sourcePoint" />
            <mxPoint x="2370" y="540" as="targetPoint" />
            <Array as="points">
              <mxPoint x="2200" y="535" />
              <mxPoint x="2200" y="140" />
              <mxPoint x="1065" y="140" />
            </Array>
          </mxGeometry>
        </mxCell>
        <mxCell id="qtOEuD3kWv1N_w0OJ42x-65" value="Edit Information" style="rounded=1;whiteSpace=wrap;html=1;" vertex="1" parent="1">
          <mxGeometry x="1350" y="620" width="120" height="60" as="geometry" />
        </mxCell>
        <mxCell id="qtOEuD3kWv1N_w0OJ42x-66" value="" style="endArrow=classic;html=1;rounded=0;exitX=1;exitY=0.5;exitDx=0;exitDy=0;entryX=0;entryY=0.5;entryDx=0;entryDy=0;edgeStyle=elbowEdgeStyle;" edge="1" parent="1" source="qtOEuD3kWv1N_w0OJ42x-30" target="qtOEuD3kWv1N_w0OJ42x-65">
          <mxGeometry width="50" height="50" relative="1" as="geometry">
            <mxPoint x="1160" y="650" as="sourcePoint" />
            <mxPoint x="1210" y="600" as="targetPoint" />
            <Array as="points">
              <mxPoint x="1150" y="500" />
            </Array>
          </mxGeometry>
        </mxCell>
        <mxCell id="qtOEuD3kWv1N_w0OJ42x-67" value="Want to edit information?" style="edgeLabel;html=1;align=center;verticalAlign=middle;resizable=0;points=[];" vertex="1" connectable="0" parent="qtOEuD3kWv1N_w0OJ42x-66">
          <mxGeometry x="0.5291" y="1" relative="1" as="geometry">
            <mxPoint x="15" y="-9" as="offset" />
          </mxGeometry>
        </mxCell>
        <mxCell id="qtOEuD3kWv1N_w0OJ42x-68" value="" style="endArrow=classic;html=1;rounded=0;exitX=1;exitY=0.5;exitDx=0;exitDy=0;entryX=0;entryY=0.5;entryDx=0;entryDy=0;edgeStyle=orthogonalEdgeStyle;" edge="1" parent="1" source="qtOEuD3kWv1N_w0OJ42x-65" target="qtOEuD3kWv1N_w0OJ42x-61">
          <mxGeometry width="50" height="50" relative="1" as="geometry">
            <mxPoint x="1670" y="660" as="sourcePoint" />
            <mxPoint x="1720" y="610" as="targetPoint" />
          </mxGeometry>
        </mxCell>
        <mxCell id="qtOEuD3kWv1N_w0OJ42x-69" value="" style="endArrow=classic;html=1;rounded=0;exitX=1;exitY=0.5;exitDx=0;exitDy=0;entryX=0;entryY=0.5;entryDx=0;entryDy=0;edgeStyle=elbowEdgeStyle;" edge="1" parent="1" source="qtOEuD3kWv1N_w0OJ42x-30" target="qtOEuD3kWv1N_w0OJ42x-70">
          <mxGeometry width="50" height="50" relative="1" as="geometry">
            <mxPoint x="1160" y="660" as="sourcePoint" />
            <mxPoint x="1150" y="740" as="targetPoint" />
            <Array as="points">
              <mxPoint x="1150" y="560" />
            </Array>
          </mxGeometry>
        </mxCell>
        <mxCell id="qtOEuD3kWv1N_w0OJ42x-71" value="Want to log out?" style="edgeLabel;html=1;align=center;verticalAlign=middle;resizable=0;points=[];" vertex="1" connectable="0" parent="qtOEuD3kWv1N_w0OJ42x-69">
          <mxGeometry x="0.6638" y="-3" relative="1" as="geometry">
            <mxPoint y="-13" as="offset" />
          </mxGeometry>
        </mxCell>
        <mxCell id="qtOEuD3kWv1N_w0OJ42x-70" value="Log Out" style="ellipse;whiteSpace=wrap;html=1;aspect=fixed;" vertex="1" parent="1">
          <mxGeometry x="1350" y="730" width="80" height="80" as="geometry" />
        </mxCell>
      </root>
    </mxGraphModel>
  </diagram>
</mxfile>
